<?xml version="1.0" encoding="UTF-8"?>
<svg width="125px" height="69px" viewBox="0 0 125 69" version="1.1" xmlns="http://www.w3.org/2000/svg" xmlns:xlink="http://www.w3.org/1999/xlink">
    <title>Header/header-logo-svg</title>
    <g id="Header/header-logo" stroke="none" stroke-width="1" fill="none" fill-rule="evenodd">
        <g id="logo">
            <path d="M123.131438,63.9493571 C123.131438,63.9493571 119.519795,65.3075419 116.27472,66.073577 C109.19477,67.7419355 105.209508,66.3508534 103.994661,65.4038838 C103.994661,65.4038838 102.100722,65.7963005 100.979867,65.4908264 C99.8566622,65.1877021 99.6005339,64.6730957 99.3373562,64.6871945 C99.0741785,64.7012933 97.5374088,65.6576622 96.0781826,65.6694112 C94.6189563,65.6811602 94.3252312,65.6341642 93.8811189,65.2346981 C93.4393563,64.835232 93.3594631,64.4710129 93.2819197,64.2595308 C93.2067261,64.0456989 93.2302241,63.8177683 92.877754,63.9963531 C92.5276337,64.174938 91.3151365,64.9433228 89.9827995,65.2417475 C88.6528122,65.5401722 88.0230656,65.2816941 88.0230656,65.2816941 C88.0230656,65.2816941 87.6188999,65.3098917 87.6281377,64.9456726 C87.6376983,64.5814535 88.1288067,64.7036431 88.1288067,64.7036431 C88.1288067,64.7036431 88.5329724,64.9268742 89.2731596,64.6566471 C90.0133469,64.3840702 91.0167118,64.0738965 92.1563651,63.2726145 C92.5699301,62.9788894 93.018742,62.7368599 93.3242161,62.5065794 C93.8576209,62.1024137 94.1231484,61.7945898 94.2429882,61.7851906 C94.4333221,61.7710918 96.1651252,61.862734 96.1980224,61.874483 C96.2121212,61.8791826 96.1698248,62.0859651 96.085232,62.288048 C95.9982893,62.4901308 95.7515603,62.8308519 95.6387698,63.0963794 C95.5283292,63.3595571 95.2557523,64.1537898 95.624671,64.4921611 C95.9912399,64.8281826 96.2309196,64.7130423 96.6703324,64.6096511 C97.1073953,64.5039101 97.8099857,64.0597977 98.1319084,63.5404918 C98.2517483,63.3501579 98.4773291,63.1198774 98.6606136,62.8426009 C98.9754869,62.3655914 99.2598128,61.8415858 99.363204,61.8321866 C99.5253403,61.8180878 101.494473,61.7640424 101.494473,61.7640424 C101.494473,61.7640424 101.374633,62.1846567 101.160802,62.5841229 C100.94462,62.9859388 100.636796,63.3689563 100.601549,63.8107189 C100.575701,64.1114933 100.542804,64.5767539 101.048011,64.6495977 C101.550868,64.7200917 102.408546,64.7506391 102.732818,64.5979021 C103.057091,64.4428152 103.045342,64.4804121 102.991296,64.0668471 C102.939601,63.6532822 102.963099,63.4371005 103.273272,62.983589 C103.583446,62.5277276 104.356531,61.9167795 105.512633,61.6183548 C106.666385,61.3199301 107.817787,61.5314121 108.421686,61.9473269 C108.898695,62.276299 108.910444,62.6029213 108.856399,62.7885555 C108.800004,62.97184 108.353542,63.5451914 107.55226,64.0386495 C106.520697,64.6707459 105.533781,64.8164336 105.557279,64.9033762 C105.618374,65.1242575 105.89095,65.3709865 106.899015,65.7422551 C107.907079,66.1111738 110.820832,66.4800925 114.871889,65.648263 C116.223024,65.3709865 120.102545,63.7519738 120.102545,63.7519738 C120.102545,63.7519738 121.021317,63.4441499 123.131438,63.9493571 M105.026224,63.526393 C105.052072,63.8201181 105.169562,63.8835627 105.402192,63.7707722 C105.653621,63.6485826 105.888601,63.5945372 106.187025,63.2702647 C106.410256,63.0258854 106.476051,62.6334687 106.203474,62.4243364 C105.930897,62.2152042 105.406891,62.6076209 105.406891,62.6076209 C105.033273,62.8449507 105.000376,63.2326679 105.026224,63.526393" id="Fill-76" fill="#222221"></path>
            <path d="M41.0047278,61.2200635 C41.0117772,61.2177137 41.4958362,59.3472724 41.4817373,59.3613712 C41.4699883,59.3731202 39.6958888,59.6315982 37.877143,59.9558707 C36.6340984,60.1791018 35.2994116,60.4986747 34.7777558,60.778301 C34.540426,60.90754 33.1939901,60.8769926 33.1939901,60.8769926 C33.4454188,59.9065249 36.4367152,59.2979265 41.6791206,58.4848955 C41.8083597,58.4637473 41.7989604,58.289862 41.9258497,58.2710636 C42.7576791,58.1441744 43.6576528,58.0525321 44.0524194,58.0736804 C44.1088146,58.0760302 44.0947158,58.2123186 44.1323126,58.2052692 C44.5482273,58.1465242 48.0329818,57.8457497 49.1279889,57.8692477 C50.2182965,57.8903959 50.4180296,58.1441744 50.4180296,58.6164843 C50.4180296,58.8867114 49.7835834,59.3237743 49.268977,59.7067919 C48.8836097,59.9934676 48.5781356,60.2777934 48.5781356,60.2777934 C48.7120742,60.2566452 49.0010997,60.2965918 49.3300718,60.3247895 C49.7741841,60.3647361 50.3451857,60.3929337 50.8668415,60.4563783 C51.7080702,60.5597695 52.3683642,60.6772596 52.488204,60.7407042 C52.9041187,60.9615855 53.7993928,61.4550436 53.3247331,62.3127209 C52.8477235,63.172748 52.8759211,63.1797974 50.566067,64.6907192 C48.2538631,66.2016411 45.7019795,67.0311208 42.0879859,67.6843654 C38.4716426,68.3352602 36.2181837,68.5796394 31.8005583,68.314112 C27.3852827,68.0462347 26.2573784,66.4084236 26.2573784,66.4084236 L28.985497,65.6400387 C30.4071265,67.1204132 32.1154316,67.9545925 39.7029382,67.0945654 C47.2904448,66.2368881 50.3122885,62.782681 50.7704997,62.2351775 C51.2710072,61.6359783 50.8832901,61.274109 49.9950654,61.2271129 C49.2760264,61.1895161 48.0000846,61.1519193 46.7264926,61.2576604 C44.9124464,61.4080476 43.1242481,61.7276205 43.1242481,61.7276205 L41.7026186,65.6400387 L39.4726577,65.7058331 L40.6710561,62.1717328 L37.665661,62.7074874 L37.6915088,62.0095966 C37.6915088,62.0095966 40.1118035,61.3986484 41.0047278,61.2200635 M43.6576528,59.8313313 C43.6576528,59.8313313 43.006758,60.9286882 44.6657173,60.4258309 C46.3246767,59.9206237 46.8604312,59.5352564 47.0390161,59.3284739 C47.2152511,59.1216915 47.2434488,58.9431066 46.651299,58.914909 C46.0591492,58.8843616 44.339095,58.973654 44.339095,58.973654 C44.339095,58.973654 43.8644353,58.973654 43.6576528,59.8313313" id="Fill-78" fill="#222221"></path>
            <path d="M57.1751166,62.7652925 C55.9884672,63.5054797 55.5138074,64.2762144 56.0472122,64.8683642 C56.580617,65.4605139 58.0092958,64.5534909 58.4745564,64.2409674 C58.9398169,63.9260941 59.3416328,63.4984303 59.6189093,63.1083634 C59.893836,62.7182965 60.0700711,62.5420614 60.2345571,62.1143977 C60.3027013,61.9405124 60.648122,61.4658527 60.6528216,61.4588033 C60.659871,61.4517539 62.9133299,61.4235563 62.9133299,61.4235563 C62.9133299,61.4235563 62.0908997,63.3973889 62.0439037,63.6746654 C61.9945579,63.9754399 61.9710599,64.504145 62.6619013,64.4172024 C63.3527427,64.3302598 64.9388582,63.9025961 66.132557,63.1976558 C67.3286055,62.4927156 68.4236127,61.9804591 69.3541338,61.7760264 C70.2846549,61.5739435 70.9872453,61.7877754 71.0130931,62.3282296 C71.0365911,62.8686837 70.9778461,63.0402192 71.1681799,63.054318 C71.356164,63.066067 72.3971257,62.4551188 73.2031074,62.2671347 C74.0067392,62.0768009 75.1957384,61.6914336 76.2460993,61.8888168 C76.4058858,61.9193642 76.8006523,61.9123148 76.6479153,62.5162136 C76.497528,63.1224622 76.2813463,63.9660407 76.344791,64.2785642 C76.4105854,64.5934375 76.4199846,64.7062279 77.1131758,64.7062279 C77.806367,64.7062279 78.6616945,64.504145 79.8694921,63.6370686 C81.0749398,62.7699921 81.2887717,62.3916742 82.2451406,61.9264136 C83.2015095,61.4611531 84.2189732,61.1721276 85.3022314,61.4752519 C86.6768648,61.8582694 86.2562505,61.8911666 86.4207365,61.827722 C86.5852226,61.7619276 86.6322186,61.8018742 86.6721652,61.6138901 C86.709762,61.4235563 86.7473588,61.2097244 86.9494417,61.2238232 C87.1515246,61.2355722 88.9608711,61.1838766 88.9608711,61.1838766 C88.9608711,61.1838766 89.2146496,61.26142 88.9867189,61.663236 C88.7587883,62.0650519 87.5415915,64.2409674 87.0880799,65.3477235 C86.686264,66.3299402 86.4136871,66.9831848 86.0400688,67.9701011 C86.0048218,68.0617434 85.5795079,69.363533 85.5701087,69.37765 C85.5677589,69.3799816 83.4928848,69.1544007 83.4999342,69.1426517 C83.514033,69.1191537 84.0286394,67.5330382 84.3975581,66.5414223 C84.5972911,66.0009681 84.8722178,65.472263 84.9239135,65.2208343 C84.9756091,64.9694056 84.9991071,64.7320757 84.634888,64.882463 C84.2706688,65.0328502 83.1615629,65.4746128 82.0806546,65.3477235 C80.9997462,65.2208343 80.3465016,64.7062279 80.283057,64.6310343 C80.2196124,64.5558407 80.1937646,64.5793387 79.9799327,64.6545323 C79.7661008,64.7320757 78.3703192,65.3218757 77.3270077,65.4229171 C76.2836961,65.5239586 75.165191,65.8764287 74.7116794,65.2983777 C74.2581679,64.7179769 74.3098635,64.6051865 74.2957647,64.2033706 C74.2816659,63.8015546 74.3169129,63.6347188 74.2205711,63.3621419 C74.1101305,63.054318 74.2346699,62.9344782 73.3534946,63.1976558 C73.0127735,63.2986973 70.848607,64.4054534 69.8687401,65.6508478 C69.8687401,65.6508478 68.0969904,65.6625968 68.0076979,65.5357076 C67.9184055,65.4088183 67.8831585,65.4605139 68.0076979,65.0845458 C68.1322374,64.7062279 68.4471107,63.8391514 68.4729585,63.6370686 C68.4964565,63.4349857 68.2967234,63.3104463 68.0828916,63.3738909 C67.8690597,63.4349857 64.245667,64.9952534 62.5726088,65.3218757 C60.8995507,65.6508478 60.3214997,65.2842789 59.7176009,64.6310343 L59.4426743,64.6169355 C59.4426743,64.6169355 58.0445428,65.8270829 56.0824592,65.9140255 C54.1227254,66.0009681 53.8806959,65.1197928 53.8454489,64.8448662 C53.8078521,64.5675897 53.7843541,64.0153865 54.3365573,63.4608335 C54.8864106,62.9062805 55.8568783,62.1778423 56.8014982,61.8770678 C57.7437683,61.5739435 58.8881213,61.3601117 59.870338,61.4870009 C59.870338,61.4870009 60.2369069,61.5128487 60.1852113,61.7901252 C60.1335157,62.0650519 59.893836,61.9029156 59.4027276,61.9898583 C58.9139691,62.0768009 58.3617659,62.0251053 57.1751166,62.7652925 M83.4388394,64.5323427 C83.9064497,64.4313012 84.2377716,64.4500996 85.400923,63.5031299 C86.5640744,62.5538104 85.4996146,62.3047316 85.4996146,62.3047316 C84.6842338,62.1566941 84.5855421,62.1566941 83.537531,62.6548519 C82.4895199,63.1530096 82.2921366,63.9354933 82.2921366,63.9354933 C82.2592394,64.8166685 83.4388394,64.5323427 83.4388394,64.5323427" id="Fill-80" fill="#222221"></path>
            <path d="M39.5457365,69.2225449 L39.5104895,68.5293537 C39.5104895,68.5293537 41.2375931,68.2849744 42.3866456,68.078192 C44.1207986,67.7680183 46.6139371,67.03958 46.6139371,67.03958 L83.691443,67.004333 L82.8948605,69.2225449 L39.5457365,69.2225449 Z" id="Fill-82" fill="#239CD3"></path>
            <path d="M86.9715298,67.004803 L106.632313,67.0306508 C106.632313,67.0306508 107.471191,67.1763384 107.814262,67.2303839 C108.277173,67.3032277 108.885771,67.3337751 108.885771,67.3337751 L108.885771,69.1877679 L86.2219434,69.2018667 L86.9715298,67.004803 Z" id="Fill-84" fill="#239CD3"></path>
            <path d="M36.4653827,20.4350421 L46.2992988,8.2983213 C46.2992988,8.2983213 39.080711,0.243204376 27.8862602,0.243204376 C15.4370159,0.243204376 0.0575701181,9.5554647 0.0575701181,27.3411065 C0.0575701181,45.3358805 15.9586717,54.2275265 26.7348579,54.2275265 C39.080711,54.2275265 46.4050399,46.2758008 46.4050399,46.2758008 L36.4653827,34.244821 C36.4653827,34.244821 33.2226577,38.6389484 27.2588634,38.6389484 C21.2950692,38.6389484 15.8552805,34.4539533 15.8552805,27.1319742 C15.8552805,19.8076453 22.8647361,15.8317825 27.2588634,15.8317825 C33.43179,15.8317825 36.4653827,20.4350421 36.4653827,20.4350421" id="Fill-86" fill="#239CD3"></path>
            <path d="M39.6042466,1.91696744 L39.6042466,0.138168283 L57.5990206,0.138168283 C57.5990206,0.138168283 69.6300004,0.138168283 74.8630066,8.71729077 C76.5078671,11.4195616 78.2091229,14.5682946 78.2091229,19.0752124 C78.2091229,23.5515828 76.6958512,27.2666178 75.1755301,29.9547898 C69.7357414,39.5819235 58.3321584,38.7430446 58.3321584,38.7430446 L55.2985657,38.7430446 L55.2985657,54.1224904 L39.6042466,54.1224904 L39.6042466,52.7643056 C39.6042466,52.7643056 41.9047015,51.6129032 43.7892417,50.1466276 C45.6714321,48.6827017 47.8684958,46.3822468 47.8684958,46.3822468 L39.6042466,36.2334574 L39.6042466,18.5512069 L47.7651045,8.08989398 C47.7651045,8.08989398 46.0896966,6.10196255 43.8926329,4.53229566 C41.6955692,2.96262877 39.6042466,1.91696744 39.6042466,1.91696744 M63.6662061,19.7026092 C63.6662061,14.575344 58.9595552,14.681085 58.9595552,14.681085 L55.2985657,14.681085 L55.2985657,24.5150011 L59.1686875,24.5150011 C59.1686875,24.5150011 63.6662061,24.6207422 63.6662061,19.7026092" id="Fill-88" fill="#239CD3"></path>
            <path d="M67.4336416,38.1161178 C67.4336416,38.1161178 73.3950861,35.9683999 76.7459019,29.6427363 C80.5102827,22.5275397 80.1977592,15.6214753 76.7459019,9.5542898 C73.066114,3.08763817 67.4336416,1.08090834 67.4336416,1.08090834 L67.4336416,0.138638243 L83.0222197,0.138638243 L83.0222197,19.3882059 L93.1710091,19.3882059 L93.1710091,0.138638243 L108.862978,0.138638243 L108.862978,19.3882059 L124.872171,19.3882059 L115.240338,35.082525 L108.862978,35.082525 L108.862978,54.1229604 L93.1710091,54.1229604 L93.1710091,35.082525 L83.0222197,35.082525 L83.0222197,54.1229604 L67.4336416,54.1229604 L67.4336416,38.1161178 Z" id="Fill-90" fill="#239CD3"></path>
        </g>
    </g>
</svg>